<svg xmlns="http://www.w3.org/2000/svg" viewBox="0 0 64 64" aria-hidden="true">
  <rect width="64" height="64" fill="#05060d"/>
  <g shape-rendering="crispEdges">
    <rect x="10" y="8" width="4" height="48" fill="#142138"/>
    <rect x="18" y="12" width="4" height="40" fill="#11243a"/>
    <rect x="26" y="6" width="4" height="52" fill="#16283f"/>
    <rect x="34" y="10" width="4" height="44" fill="#0f2136"/>
    <rect x="42" y="8" width="4" height="48" fill="#15253b"/>
    <rect x="50" y="14" width="4" height="36" fill="#102035"/>
    <rect x="30" y="30" width="4" height="20" fill="#ff8e47" opacity=".8"/>
    <rect x="16" y="46" width="32" height="2" fill="#ff4d6d"/>
    <rect x="18" y="50" width="28" height="2" fill="#41e2ff"/>
    <rect x="20" y="28" width="4" height="4" fill="#fff4cf"/>
    <rect x="40" y="28" width="4" height="4" fill="#fff4cf"/>
    <rect x="30" y="18" width="4" height="4" fill="#fff4cf"/>
    <rect x="30" y="38" width="4" height="4" fill="#fff4cf"/>
    <rect x="24" y="24" width="4" height="4" fill="#ff8e47"/>
    <rect x="36" y="24" width="4" height="4" fill="#ff8e47"/>
    <rect x="24" y="36" width="4" height="4" fill="#ff8e47"/>
    <rect x="36" y="36" width="4" height="4" fill="#ff8e47"/>
    <rect x="28" y="20" width="8" height="4" fill="#ff8e47"/>
    <rect x="20" y="28" width="4" height="8" fill="#ff8e47"/>
    <rect x="40" y="28" width="4" height="8" fill="#ff8e47"/>
    <rect x="28" y="40" width="8" height="4" fill="#ff8e47"/>
    <rect x="28" y="24" width="8" height="4" fill="#ffe16b"/>
    <rect x="24" y="28" width="4" height="8" fill="#ffe16b"/>
    <rect x="36" y="28" width="4" height="8" fill="#ffe16b"/>
    <rect x="28" y="36" width="8" height="4" fill="#ffe16b"/>
    <rect x="30" y="26" width="4" height="12" fill="#05060d"/>
    <rect x="26" y="30" width="12" height="4" fill="#05060d"/>
    <rect x="8" y="20" width="4" height="4" fill="#41e2ff"/>
    <rect x="52" y="20" width="4" height="4" fill="#ff4d6d"/>
    <rect x="12" y="12" width="4" height="4" fill="#ffe16b"/>
    <rect x="48" y="12" width="4" height="4" fill="#41e2ff"/>
  </g>
</svg>
